<svg
	width="100%"
	height="100%"
	viewBox="0 0 512.000000 512.000000"
	color-interpolation-filters="sRGB"
	style="margin: auto"
>
	<g transform="translate(106.15490169128442, 144.32638713680836)">
		<g transform="scale(2)">
			<g fill="#000000">
				<g opacity="1" transform="matrix(1,0,0,1,18.67255401611328,0)">
					<g>
						<rect
							fill="#000000"
							fill-opacity="0"
							stroke-width="2"
							x="0"
							y="0"
							width="112.5"
							height="111.67361524717093"
						></rect>
						<svg x="0" y="0" width="112.5" height="111.67361524717093" style="overflow: visible">
							<svg
								viewBox="-0.016226325184106827 -0.000024738223146414384 497.2114562988281 493.56005859375"
							>
								<defs>
									<linearGradient
										id="abc8dc649-cb89-4c71-be85-3929cf01b497"
										x1="248.6"
										y1="493.56"
										x2="248.6"
										gradientUnits="userSpaceOnUse"
									>
										<stop offset="0" stop-color="#9708cc"></stop>
										<stop offset=".23" stop-color="#813cda"></stop>
										<stop offset=".6" stop-color="#6088ee"></stop>
										<stop offset=".87" stop-color="#4bb9fa"></stop>
										<stop offset="1" stop-color="#43cbff"></stop>
									</linearGradient>
								</defs>
								<g>
									<path
										d="M79.62 263.06a561.51 561.51 0 0 1-4-73.49A394.34 394.34 0 0 1 84 111.26c5.85-26.07 14.12-52.48 32.22-77.32a95.84 95.84 0 0 1 16.58-17.66A72.69 72.69 0 0 1 156.6 3a61.65 61.65 0 0 1 19-3 59.19 59.19 0 0 1 10.28.89A69 69 0 0 1 211.15 11a91.93 91.93 0 0 1 18.1 15.35c2.71 2.75 4.82 5.61 7.23 8.41 2.07 2.9 4.33 5.71 6.2 8.66a219.35 219.35 0 0 1 18.94 35.71 342.65 342.65 0 0 1 14.27 40.73q-22.73-8-46.88-15c-1.33-3-2.75-5.85-4.18-8.76a176.36 176.36 0 0 0-17.12-27.79c-1.52-2.12-3.25-3.94-4.82-5.9-1.72-1.72-3.3-3.69-5.07-5.16a48 48 0 0 0-10.23-7.58 22.63 22.63 0 0 0-8.71-2.85 13 13 0 0 0-3.69.25 15.27 15.27 0 0 0-3 1C167.72 50 161.87 55.19 157 62.91A111.09 111.09 0 0 0 145.53 88a187.16 187.16 0 0 0-6.53 26.56c-.44 2.26-.79 4.53-1.13 6.79a326 326 0 0 0-3 60.65q.07 3.32.3 6.64c.34 6.69.84 13.43 1.48 20.17 1.48 16.08 3.84 32.22 6.94 48.2 7.77 41.17 20 81.65 35.22 121.1l-.25.15a316.66 316.66 0 0 1-55.34 29.07c-3.49 1.38-6.94 2.66-10.33 3.79q-7.45-22.95-13.67-46.34c-2.66-9.94-5.12-20-7.33-30q-4.89-21.92-8.48-44.22c-1.28-7.87-2.36-15.79-3.34-23.76-.15-1.23-.3-2.51-.45-3.74zm416.48 65.72a98.88 98.88 0 0 0-7-23.17c-12.44-28.09-31.23-48.45-50.86-66.6a395.9 395.9 0 0 0-63.65-46.38q-9.89-5.9-20.07-11.36c-2.41-1.33-4.87-2.61-7.33-3.89q-4.65-2.43-9.3-4.72-3-1.55-6-3c-2.16-1.08-4.33-2.07-6.49-3.1-2.36-1.08-4.67-2.16-7-3.2-3.1-1.38-6.2-2.75-9.3-4.08-1.18-.54-2.36-1-3.54-1.52-4.08-1.72-8.12-3.39-12.2-5-3.34-1.33-6.69-2.66-10-3.94-2.56-1-5.12-2-7.72-2.9s-5.16-1.92-7.72-2.8c-2.36-.89-4.72-1.72-7.13-2.51-6.64-2.31-13.28-4.48-20-6.59-3.34-1-6.69-2.07-10-3l-6.54-1.92c-4.33-1.28-8.66-2.46-13-3.64-1.82-.49-3.59-1-5.41-1.43-3.1-.84-6.2-1.62-9.3-2.41q-10.26-2.58-20.51-4.87c-2-.44-3.93-.93-5.9-1.33s-3.94-.89-5.9-1.28c-.74 3.49-1.38 7.08-1.92 10.82a317.25 317.25 0 0 0-2.46 62.47v.34c.2 0 .44 0 .64.1s.34 0 .49.1c4.87.74 9.69 1.52 14.51 2.41 4.38.74 8.71 1.52 13 2.41 1.67.3 3.35.59 5 .93.39.1.84.15 1.23.25 2.56.54 5.07 1 7.58 1.57.15 0 .3 0 .44.1 2.9.59 5.8 1.23 8.66 1.92s5.51 1.23 8.26 1.87l1.92.44c2.7.69 5.36 1.33 8 2 2.41.59 4.77 1.23 7.18 1.87 1.43.39 2.9.74 4.33 1.13 2.71.74 5.41 1.52 8.12 2.31s5.56 1.62 8.36 2.46c2.36.69 4.67 1.43 7 2.16 1 .34 2.07.64 3.1 1 4.87 1.57 9.79 3.2 14.61 4.92 2.26.79 4.53 1.57 6.74 2.41s4.48 1.62 6.74 2.51c2 .74 4 1.52 6 2.31a8.87 8.87 0 0 1 1 .39c1.57.59 3.1 1.23 4.62 1.87s2.9 1.13 4.33 1.77 2.75 1.13 4.13 1.67c0 0 .15 0 .2.1 3.84 1.67 7.62 3.34 11.41 5.07.15 0 .3.15.44.2 3 1.38 6 2.75 9 4.23s5.9 2.9 8.8 4.38c2 1 3.89 2 5.8 3 1.87.93 3.74 1.92 5.56 3 .59.3 1.13.59 1.67.89l.25.15c2 1.13 4 2.26 6 3.44s3.74 2.16 5.56 3.3q3.1 1.84 6.2 3.84c2.07 1.28 4.08 2.61 6.1 3.94s3.94 2.66 5.9 4q7.16 5 13.87 10.33c1.62 1.28 3.2 2.61 4.82 3.94a3.4 3.4 0 0 1 .49.39l1 .89c1.43 1.23 2.85 2.46 4.23 3.69 1.62 1.48 3.25 3 4.82 4.48.84.84 1.72 1.62 2.51 2.46s1.67 1.62 2.46 2.46l.69.69c1.33 1.43 2.71 2.85 4 4.33 1.67 1.82 3.25 3.69 4.72 5.56.1.1.2.25.29.34.64.84 1.28 1.57 1.87 2.41 1.28 1.67 2.51 3.39 3.64 5.07.69 1 1.33 2 2 3 1.28 2 2.46 4 3.49 6.05 4.28 8 5.9 15.74 5.31 20.56a13.6 13.6 0 0 1-2.31 6.39 22.47 22.47 0 0 1-6.84 6.15 45.7 45.7 0 0 1-11.66 5c-2.16.79-4.67 1.18-7 1.82-2.51.39-4.92 1-7.53 1.28a162.77 162.77 0 0 1-20.46 1.23c-4 0-8.07-.15-12.15-.34-3.2-.2-6.44-.44-9.69-.74q-18.08 17.49-36.4 33.05 3.69 1 7.38 1.77c1.72.44 3.49.84 5.21 1.18 2.8.64 5.66 1.23 8.46 1.77 3.49.64 7 1.28 10.53 1.82.79.15 1.57.25 2.36.34 2.8.44 5.61.84 8.46 1.18a242.77 242.77 0 0 0 28.38 1.82c3.94 0 8-.1 12-.39 3.49-.15 7.08-.69 10.62-1 3.59-.64 7.18-1.08 10.87-2a92.55 92.55 0 0 0 22.38-8.07 67.55 67.55 0 0 0 21.3-16.77A60.85 60.85 0 0 0 495.71 356a72.85 72.85 0 0 0 .39-27.22zM362.41 342q17.19-17 33.35-35c-2.7-2.36-5.51-4.72-8.46-7a314.81 314.81 0 0 0-52.83-33.4l-.3-.15c-26.51 32.91-55.43 63.8-87.21 91.1-12.35 10.62-25.09 20.71-38.27 30.05-5.51 3.94-11.12 7.77-16.77 11.41-1.87 1.18-3.69 2.36-5.56 3.54a328.4 328.4 0 0 1-54.06 27.65c-2.12.84-4.23 1.67-6.39 2.41-.54-.44-1-.84-1.57-1.33a20.18 20.18 0 0 0 1.52 1.38 3.86 3.86 0 0 0-.69.25c-2.12.74-4.18 1.48-6.3 2.16-.64.2-1.28.39-1.87.59-1.77.59-3.59 1.13-5.36 1.62-.64.2-1.23.34-1.87.49-1.77.54-3.54 1-5.31 1.38s-3.25.79-4.87 1.13a119.4 119.4 0 0 1-23.66 2.66c-1.28 0-2.56 0-3.84-.1-9.05-.3-16.53-2.75-20.41-5.66a14 14 0 0 1-4.37-5.18 22.06 22.06 0 0 1-1.92-9 45.94 45.94 0 0 1 1.48-12.59c.39-2.26 1.28-4.62 1.92-7 .93-2.36 1.62-4.77 2.71-7.13A174.21 174.21 0 0 1 67 367.54c1.77-2.71 3.59-5.36 5.51-8-4.1-16.25-7.6-32.24-10.51-48.08a348.41 348.41 0 0 0-28.14 32.71 221.21 221.21 0 0 0-21.5 34.28c-1.57 3-2.9 6.44-4.38 9.69-1.23 3.49-2.66 6.74-3.69 10.43A93.4 93.4 0 0 0 .08 422 69 69 0 0 0 4 448.84a61.58 61.58 0 0 0 16.48 24.35 72.85 72.85 0 0 0 23.41 13.92 97.2 97.2 0 0 0 23.56 5.56 163.44 163.44 0 0 0 16.82.89c3 0 5.9-.1 8.85-.25 5.8-.3 11.51-.89 17.12-1.72 2.8-.44 5.56-.89 8.31-1.43s5.46-1.13 8.16-1.72 5.41-1.28 8.07-2 5.31-1.43 7.92-2.16l7.82-2.36a395.06 395.06 0 0 0 72-31.92 549.51 549.51 0 0 0 61.63-40.14c1-.74 2-1.48 3-2.26q9.59-7.23 18.89-14.81c11.71-9.49 23-19.28 34-29.46q11.52-10.43 22.37-21.33z"
										fill="url(#abc8dc649-cb89-4c71-be85-3929cf01b497)"
									/>
								</g>
							</svg>
						</svg>
					</g>
				</g>
				<g transform="translate(0,29.96556282043457)">
					<g>
						<g>
							<g>
								<path
									d="M7.41-40.69L42.38-40.69Q43.29-40.69 44.07-40.37 44.85-40.04 45.4-39.45 45.95-38.87 46.15-38.09 46.34-37.31 46.09-36.34L46.09-36.34 41.73-3.9 6.76-3.9Q5.85-3.9 5.07-4.23 4.29-4.55 3.74-5.13 3.19-5.72 2.99-6.53 2.79-7.35 3.06-8.26L3.06-8.26 7.41-40.69ZM33.61-34.45L18.66-34.45 15.54-10.14 29.9-10.14 33.61-34.45ZM54.54-40.69L70.78-40.69 77.67-17.62 90.74-40.69 103.87-40.69 98.87-3.9 87.62-3.9 90.74-23.27 80.8-6.37 70.78-6.37 65.78-22.62 63.31-3.9 52.06-3.9 57.07-38.22 54.54-40.69ZM112.19-40.69L152.75-40.69 150.28-21.97Q150.28-21.06 149.86-20.25 149.44-19.44 148.72-18.85 148-18.27 147.13-17.94 146.25-17.62 145.28-17.62L145.28-17.62 137.15-17.62 150.28-3.9 136.56-3.9 124.09-17.62 122.2-3.9 109.72-3.9 114.08-38.22 112.19-40.69ZM139.69-34.45L125.97-34.45 124.67-23.86 138.45-23.86 139.69-34.45Z"
									transform="translate(-2.904893636703491, 40.689998626708984)"
								/>
							</g>
						</g>
					</g>
					<g fill="#000000" transform="matrix(1,0,0,1,5,42.78999710083008)">
						<rect x="0" height="1" y="3.9750003814697266" width="28.887554168701172" />
						<rect
							height="1"
							y="3.9750003814697266"
							width="28.887554168701172"
							x="110.95755386352539"
						/>
						<g transform="translate(31.887554168701172,0)">
							<g>
								<path
									d="M8.06-6.05L8.06-6.05L6.94-6.05Q6.52-7.78 4.55-7.83L4.55-7.83Q1.83-7.69 1.73-4.36L1.73-4.36Q1.73-0.80 4.59-0.80L4.59-0.80Q6.56-0.84 7.03-3.19L7.03-3.19L8.16-3.19Q7.64 0.05 4.36 0.14L4.36 0.14Q0.61 0 0.52-4.31L0.52-4.31Q0.70-8.63 4.55-8.81L4.55-8.81Q7.59-8.72 8.06-6.05ZM16.31-4.27L16.31-4.27Q16.13-7.64 13.31-7.83L13.31-7.83Q10.45-7.69 10.31-4.27L10.31-4.27Q10.45-0.94 13.31-0.80L13.31-0.80Q16.13-0.98 16.31-4.27ZM17.48-4.27L17.48-4.27Q17.20 0 13.31 0.14L13.31 0.14Q9.38 0 9.09-4.27L9.09-4.27Q9.33-8.72 13.31-8.81L13.31-8.81Q17.20-8.67 17.48-4.27ZM22.97-3.70L20.16-3.70L20.16 0L18.98 0L18.98-8.58L22.97-8.58Q25.83-8.58 25.83-6.28L25.83-6.28Q25.83-4.88 24.61-4.22L24.61-4.22Q25.64-3.94 25.64-2.58L25.64-2.58L25.73-1.03Q25.69-0.38 26.16-0.19L26.16-0.19L26.16 0L24.70 0Q24.56-0.61 24.52-2.16L24.52-2.16Q24.56-3.70 22.97-3.70L22.97-3.70ZM23.06-7.64L20.16-7.64L20.16-4.69L22.88-4.69Q24.61-4.69 24.61-6.19L24.61-6.19Q24.61-7.64 23.06-7.64L23.06-7.64ZM31.59-3.70L28.78-3.70L28.78 0L27.61 0L27.61-8.58L31.59-8.58Q34.45-8.58 34.45-6.28L34.45-6.28Q34.45-4.88 33.23-4.22L33.23-4.22Q34.27-3.94 34.27-2.58L34.27-2.58L34.36-1.03Q34.31-0.38 34.78-0.19L34.78-0.19L34.78 0L33.33 0Q33.19-0.61 33.14-2.16L33.14-2.16Q33.19-3.70 31.59-3.70L31.59-3.70ZM31.69-7.64L28.78-7.64L28.78-4.69L31.50-4.69Q33.23-4.69 33.23-6.19L33.23-6.19Q33.23-7.64 31.69-7.64L31.69-7.64ZM37.41-1.03L42.56-1.03L42.56 0L36.23 0L36.23-8.58L42.47-8.58L42.47-7.59L37.41-7.59L37.41-4.92L42.09-4.92L42.09-3.89L37.41-3.89L37.41-1.03ZM51.23-6.05L51.23-6.05L50.11-6.05Q49.69-7.78 47.72-7.83L47.72-7.83Q45-7.69 44.91-4.36L44.91-4.36Q44.91-0.80 47.77-0.80L47.77-0.80Q49.73-0.84 50.20-3.19L50.20-3.19L51.33-3.19Q50.81 0.05 47.53 0.14L47.53 0.14Q43.78 0 43.69-4.31L43.69-4.31Q43.88-8.63 47.72-8.81L47.72-8.81Q50.77-8.72 51.23-6.05ZM54.89-7.59L51.98-7.59L51.98-8.58L58.92-8.58L58.92-7.59L56.02-7.59L56.02 0L54.89 0L54.89-7.59ZM66.75-4.27L66.75-4.27Q66.56-7.64 63.75-7.83L63.75-7.83Q60.89-7.69 60.75-4.27L60.75-4.27Q60.89-0.94 63.75-0.80L63.75-0.80Q66.56-0.98 66.75-4.27ZM67.92-4.27L67.92-4.27Q67.64 0 63.75 0.14L63.75 0.14Q59.81 0 59.53-4.27L59.53-4.27Q59.77-8.72 63.75-8.81L63.75-8.81Q67.64-8.67 67.92-4.27ZM73.41-3.70L70.59-3.70L70.59 0L69.42 0L69.42-8.58L73.41-8.58Q76.27-8.58 76.27-6.28L76.27-6.28Q76.27-4.88 75.05-4.22L75.05-4.22Q76.08-3.94 76.08-2.58L76.08-2.58L76.17-1.03Q76.13-0.38 76.59-0.19L76.59-0.19L76.59 0L75.14 0Q75-0.61 74.95-2.16L74.95-2.16Q75-3.70 73.41-3.70L73.41-3.70ZM73.50-7.64L70.59-7.64L70.59-4.69L73.31-4.69Q75.05-4.69 75.05-6.19L75.05-6.19Q75.05-7.64 73.50-7.64L73.50-7.64Z"
									transform="translate(-0.515625, 8.8125)"
								/>
							</g>
						</g>
					</g>
				</g>
			</g>
		</g>
	</g>
</svg>
